<?xml version="1.0" encoding="utf-8"?>
<!-- Generator: Adobe Illustrator 23.1.1, SVG Export Plug-In . SVG Version: 6.00 Build 0)  -->
<svg version="1.1" id="Layer_1" xmlns="http://www.w3.org/2000/svg" xmlns:xlink="http://www.w3.org/1999/xlink" x="0px" y="0px"
	 viewBox="0 0 151 101" style="enable-background:new 0 0 151 101;" xml:space="preserve">
<style type="text/css">
	.st0{fill:#CCCCCC;}
</style>
<path class="st0" d="M101.8,73L87.7,58.9C91,55,93,49.9,93,44.4C93,32.1,83,22,70.6,22c-12.4,0-22.4,10.1-22.4,22.4
	c0,12.4,10.1,22.4,22.4,22.4c4.3,0,8.3-1.2,11.7-3.3L96.8,78c0.7,0.7,1.6,1,2.5,1s1.8-0.3,2.5-1C103.1,76.6,103.1,74.4,101.8,73z
	 M55.2,44.4c0-8.5,6.9-15.4,15.4-15.4S86,35.9,86,44.4s-6.9,15.4-15.4,15.4S55.2,52.9,55.2,44.4z"/>
</svg>
