<?xml version="1.0" encoding="utf-8"?>
<!-- Generator: Adobe Illustrator 23.1.1, SVG Export Plug-In . SVG Version: 6.00 Build 0)  -->
<svg version="1.1" id="Layer_1" xmlns="http://www.w3.org/2000/svg" xmlns:xlink="http://www.w3.org/1999/xlink" x="0px" y="0px"
	 viewBox="0 0 100 100" style="enable-background:new 0 0 100 100;" xml:space="preserve">
<style type="text/css">
	.st0{fill:#010202;}
	.st1{fill:#FFFFFF;}
</style>
<circle class="st0" cx="50" cy="50" r="50"/>
<path class="st1" d="M78.3,63.9c0-0.1,0-0.2,0-0.3s0-0.2,0-0.3v-22c0-4.1-1-7.2-2.9-9.5c-1.9-2.3-4.8-3.4-8.7-3.4
	c-2.3,0-4.4,0.4-6.1,1.3c-1.7,0.9-3.1,2.3-4.3,4.3c-0.5-1.8-1.6-3.2-3.3-4.2c-1.6-1-3.6-1.4-6-1.4c-1.9,0-3.7,0.4-5.2,1.2
	c-1.6,0.8-3,2.1-4.4,4v-4.5h-8.5v26.4c-4.2,0.3-7.5,3.7-7.5,8c0,4.4,3.6,8,8,8c4.1,0,7.5-3.1,7.9-7.2h0.1V45.8c0-2.2,0.2-4,0.5-5.3
	c0.3-1.3,0.9-2.4,1.6-3.2c1.1-1.2,2.5-1.8,4.3-1.8c1.8,0,3.2,0.6,4.1,1.7c1,1.2,1.4,2.9,1.4,5.2v13.3c-4.2,0.2-7.5,3.7-7.5,8
	c0,4.4,3.6,8,8,8c4.1,0,7.5-3.1,7.9-7.2H58V45.8c0-2.1,0.2-3.9,0.5-5.3c0.3-1.4,0.9-2.5,1.7-3.4c1-1.1,2.4-1.7,4.2-1.7
	c3.7,0,5.5,2.3,5.5,7v13.3c-4.2,0.3-7.5,3.7-7.5,8c0,4.4,3.6,8,8,8c4.1,0,7.5-3.1,7.9-7.2h0V63.9z"/>
</svg>
